<svg version="1.2" baseProfile="tiny-ps" xmlns="http://www.w3.org/2000/svg" viewBox="0 0 71 71" width="71" height="71">
	<title>Shape 119 copy</title>
	<style>
		tspan { white-space:pre }
		.shp0 { fill: #e2deff } 
	</style>
	<path id="Shape 119 copy" class="shp0" d="M2.96 1C1.88 1 1 1.89 1 2.99C1 4.09 1.88 4.98 2.96 4.98C4.04 4.98 4.91 4.09 4.91 2.99C4.91 1.89 4.04 1 2.96 1ZM16.17 1C15.09 1 14.22 1.89 14.22 2.99C14.22 4.09 15.09 4.98 16.17 4.98C17.25 4.98 18.13 4.09 18.13 2.99C18.13 1.89 17.25 1 16.17 1ZM29.39 1C28.31 1 27.44 1.89 27.44 2.99C27.44 4.09 28.31 4.98 29.39 4.98C30.47 4.98 31.35 4.09 31.35 2.99C31.35 1.89 30.47 1 29.39 1ZM42.61 1C41.53 1 40.65 1.89 40.65 2.99C40.65 4.09 41.53 4.98 42.61 4.98C43.69 4.98 44.56 4.09 44.56 2.99C44.56 1.89 43.69 1 42.61 1ZM55.83 1C54.75 1 53.87 1.89 53.87 2.99C53.87 4.09 54.75 4.98 55.83 4.98C56.91 4.98 57.78 4.09 57.78 2.99C57.78 1.89 56.91 1 55.83 1ZM69.04 4.98C70.12 4.98 71 4.09 71 2.99C71 1.89 70.12 1 69.04 1C67.96 1 67.09 1.89 67.09 2.99C67.09 4.09 67.96 4.98 69.04 4.98ZM2.96 14.2C1.88 14.2 1 15.09 1 16.19C1 17.29 1.88 18.19 2.96 18.19C4.04 18.19 4.91 17.29 4.91 16.19C4.91 15.09 4.04 14.2 2.96 14.2ZM16.17 14.2C15.09 14.2 14.22 15.09 14.22 16.19C14.22 17.29 15.09 18.19 16.17 18.19C17.25 18.19 18.13 17.29 18.13 16.19C18.13 15.09 17.25 14.2 16.17 14.2ZM29.39 14.2C28.31 14.2 27.44 15.09 27.44 16.19C27.44 17.29 28.31 18.19 29.39 18.19C30.47 18.19 31.35 17.29 31.35 16.19C31.35 15.09 30.47 14.2 29.39 14.2ZM42.61 14.2C41.53 14.2 40.65 15.09 40.65 16.19C40.65 17.29 41.53 18.19 42.61 18.19C43.69 18.19 44.56 17.29 44.56 16.19C44.56 15.09 43.69 14.2 42.61 14.2ZM55.83 14.2C54.75 14.2 53.87 15.09 53.87 16.19C53.87 17.29 54.75 18.19 55.83 18.19C56.91 18.19 57.78 17.29 57.78 16.19C57.78 15.09 56.91 14.2 55.83 14.2ZM69.04 14.2C67.96 14.2 67.09 15.09 67.09 16.19C67.09 17.29 67.96 18.19 69.04 18.19C70.12 18.19 71 17.29 71 16.19C71 15.09 70.12 14.2 69.04 14.2ZM2.96 27.4C1.88 27.4 1 28.3 1 29.4C1 30.5 1.88 31.39 2.96 31.39C4.04 31.39 4.91 30.5 4.91 29.4C4.91 28.3 4.04 27.4 2.96 27.4ZM16.17 27.4C15.09 27.4 14.22 28.3 14.22 29.4C14.22 30.5 15.09 31.39 16.17 31.39C17.25 31.39 18.13 30.5 18.13 29.4C18.13 28.3 17.25 27.4 16.17 27.4ZM29.39 27.4C28.31 27.4 27.44 28.3 27.44 29.4C27.44 30.5 28.31 31.39 29.39 31.39C30.47 31.39 31.35 30.5 31.35 29.4C31.35 28.3 30.47 27.4 29.39 27.4ZM42.61 27.4C41.53 27.4 40.65 28.3 40.65 29.4C40.65 30.5 41.53 31.39 42.61 31.39C43.69 31.39 44.56 30.5 44.56 29.4C44.56 28.3 43.69 27.4 42.61 27.4ZM55.83 27.4C54.75 27.4 53.87 28.3 53.87 29.4C53.87 30.5 54.75 31.39 55.83 31.39C56.91 31.39 57.78 30.5 57.78 29.4C57.78 28.3 56.91 27.4 55.83 27.4ZM69.04 27.4C67.96 27.4 67.09 28.3 67.09 29.4C67.09 30.5 67.96 31.39 69.04 31.39C70.12 31.39 71 30.5 71 29.4C71 28.3 70.12 27.4 69.04 27.4ZM2.96 40.61C1.88 40.61 1 41.5 1 42.6C1 43.7 1.88 44.59 2.96 44.59C4.04 44.59 4.91 43.7 4.91 42.6C4.91 41.5 4.04 40.61 2.96 40.61ZM16.17 40.61C15.09 40.61 14.22 41.5 14.22 42.6C14.22 43.7 15.09 44.59 16.17 44.59C17.25 44.59 18.13 43.7 18.13 42.6C18.13 41.5 17.25 40.61 16.17 40.61ZM29.39 40.61C28.31 40.61 27.44 41.5 27.44 42.6C27.44 43.7 28.31 44.59 29.39 44.59C30.47 44.59 31.35 43.7 31.35 42.6C31.35 41.5 30.47 40.61 29.39 40.61ZM42.61 40.61C41.53 40.61 40.65 41.5 40.65 42.6C40.65 43.7 41.53 44.59 42.61 44.59C43.69 44.59 44.56 43.7 44.56 42.6C44.56 41.5 43.69 40.61 42.61 40.61ZM55.83 40.61C54.75 40.61 53.87 41.5 53.87 42.6C53.87 43.7 54.75 44.59 55.83 44.59C56.91 44.59 57.78 43.7 57.78 42.6C57.78 41.5 56.91 40.61 55.83 40.61ZM69.04 40.61C67.96 40.61 67.09 41.5 67.09 42.6C67.09 43.7 67.96 44.59 69.04 44.59C70.12 44.59 71 43.7 71 42.6C71 41.5 70.12 40.61 69.04 40.61ZM2.96 53.81C1.88 53.81 1 54.7 1 55.8C1 56.9 1.88 57.8 2.96 57.8C4.04 57.8 4.91 56.9 4.91 55.8C4.91 54.7 4.04 53.81 2.96 53.81ZM16.17 53.81C15.09 53.81 14.22 54.7 14.22 55.8C14.22 56.9 15.09 57.8 16.17 57.8C17.25 57.8 18.13 56.9 18.13 55.8C18.13 54.7 17.25 53.81 16.17 53.81ZM29.39 53.81C28.31 53.81 27.44 54.7 27.44 55.8C27.44 56.9 28.31 57.8 29.39 57.8C30.47 57.8 31.35 56.9 31.35 55.8C31.35 54.7 30.47 53.81 29.39 53.81ZM42.61 53.81C41.53 53.81 40.65 54.7 40.65 55.8C40.65 56.9 41.53 57.8 42.61 57.8C43.69 57.8 44.56 56.9 44.56 55.8C44.56 54.7 43.69 53.81 42.61 53.81ZM55.83 53.81C54.75 53.81 53.87 54.7 53.87 55.8C53.87 56.9 54.75 57.8 55.83 57.8C56.91 57.8 57.78 56.9 57.78 55.8C57.78 54.7 56.91 53.81 55.83 53.81ZM69.04 53.81C67.96 53.81 67.09 54.7 67.09 55.8C67.09 56.9 67.96 57.8 69.04 57.8C70.12 57.8 71 56.9 71 55.8C71 54.7 70.12 53.81 69.04 53.81ZM2.96 67.01C1.88 67.01 1 67.91 1 69.01C1 70.11 1.88 71 2.96 71C4.04 71 4.91 70.11 4.91 69.01C4.91 67.91 4.04 67.01 2.96 67.01ZM16.17 67.01C15.09 67.01 14.22 67.91 14.22 69.01C14.22 70.11 15.09 71 16.17 71C17.25 71 18.13 70.11 18.13 69.01C18.13 67.91 17.25 67.01 16.17 67.01ZM29.39 67.01C28.31 67.01 27.44 67.91 27.44 69.01C27.44 70.11 28.31 71 29.39 71C30.47 71 31.35 70.11 31.35 69.01C31.35 67.91 30.47 67.01 29.39 67.01ZM42.61 67.01C41.53 67.01 40.65 67.91 40.65 69.01C40.65 70.11 41.53 71 42.61 71C43.69 71 44.56 70.11 44.56 69.01C44.56 67.91 43.69 67.01 42.61 67.01ZM55.83 67.01C54.75 67.01 53.87 67.91 53.87 69.01C53.87 70.11 54.75 71 55.83 71C56.91 71 57.78 70.11 57.78 69.01C57.78 67.91 56.91 67.01 55.83 67.01ZM69.04 67.01C67.96 67.01 67.09 67.91 67.09 69.01C67.09 70.11 67.96 71 69.04 71C70.12 71 71 70.11 71 69.01C71 67.91 70.12 67.01 69.04 67.01Z" />
</svg>