<svg version="1.2" baseProfile="tiny-ps" xmlns="http://www.w3.org/2000/svg" viewBox="0 0 43 43" width="43" height="43">
	<title>Shape 119</title>
	<style>
		tspan { white-space:pre }
		.shp0 { fill: #e2deff } 
	</style>
	<path id="Shape 119" class="shp0" d="M3.12 2C2.5 2 2 2.51 2 3.14C2 3.77 2.5 4.28 3.12 4.28C3.73 4.28 4.23 3.77 4.23 3.14C4.23 2.51 3.73 2 3.12 2ZM10.67 2C10.05 2 9.55 2.51 9.55 3.14C9.55 3.77 10.05 4.28 10.67 4.28C11.29 4.28 11.79 3.77 11.79 3.14C11.79 2.51 11.29 2 10.67 2ZM18.22 2C17.61 2 17.11 2.51 17.11 3.14C17.11 3.77 17.61 4.28 18.22 4.28C18.84 4.28 19.34 3.77 19.34 3.14C19.34 2.51 18.84 2 18.22 2ZM25.78 2C25.16 2 24.66 2.51 24.66 3.14C24.66 3.77 25.16 4.28 25.78 4.28C26.39 4.28 26.89 3.77 26.89 3.14C26.89 2.51 26.39 2 25.78 2ZM33.33 2C32.71 2 32.21 2.51 32.21 3.14C32.21 3.77 32.71 4.28 33.33 4.28C33.95 4.28 34.45 3.77 34.45 3.14C34.45 2.51 33.95 2 33.33 2ZM40.88 4.28C41.5 4.28 42 3.77 42 3.14C42 2.51 41.5 2 40.88 2C40.27 2 39.77 2.51 39.77 3.14C39.77 3.77 40.27 4.28 40.88 4.28ZM3.12 9.54C2.5 9.54 2 10.05 2 10.68C2 11.31 2.5 11.82 3.12 11.82C3.73 11.82 4.23 11.31 4.23 10.68C4.23 10.05 3.73 9.54 3.12 9.54ZM10.67 9.54C10.05 9.54 9.55 10.05 9.55 10.68C9.55 11.31 10.05 11.82 10.67 11.82C11.29 11.82 11.79 11.31 11.79 10.68C11.79 10.05 11.29 9.54 10.67 9.54ZM18.22 9.54C17.61 9.54 17.11 10.05 17.11 10.68C17.11 11.31 17.61 11.82 18.22 11.82C18.84 11.82 19.34 11.31 19.34 10.68C19.34 10.05 18.84 9.54 18.22 9.54ZM25.78 9.54C25.16 9.54 24.66 10.05 24.66 10.68C24.66 11.31 25.16 11.82 25.78 11.82C26.39 11.82 26.89 11.31 26.89 10.68C26.89 10.05 26.39 9.54 25.78 9.54ZM33.33 9.54C32.71 9.54 32.21 10.05 32.21 10.68C32.21 11.31 32.71 11.82 33.33 11.82C33.95 11.82 34.45 11.31 34.45 10.68C34.45 10.05 33.95 9.54 33.33 9.54ZM40.88 9.54C40.27 9.54 39.77 10.05 39.77 10.68C39.77 11.31 40.27 11.82 40.88 11.82C41.5 11.82 42 11.31 42 10.68C42 10.05 41.5 9.54 40.88 9.54ZM3.12 17.09C2.5 17.09 2 17.6 2 18.23C2 18.85 2.5 19.36 3.12 19.36C3.73 19.36 4.23 18.85 4.23 18.23C4.23 17.6 3.73 17.09 3.12 17.09ZM10.67 17.09C10.05 17.09 9.55 17.6 9.55 18.23C9.55 18.85 10.05 19.36 10.67 19.36C11.29 19.36 11.79 18.85 11.79 18.23C11.79 17.6 11.29 17.09 10.67 17.09ZM18.22 17.09C17.61 17.09 17.11 17.6 17.11 18.23C17.11 18.85 17.61 19.36 18.22 19.36C18.84 19.36 19.34 18.85 19.34 18.23C19.34 17.6 18.84 17.09 18.22 17.09ZM25.78 17.09C25.16 17.09 24.66 17.6 24.66 18.23C24.66 18.85 25.16 19.36 25.78 19.36C26.39 19.36 26.89 18.85 26.89 18.23C26.89 17.6 26.39 17.09 25.78 17.09ZM33.33 17.09C32.71 17.09 32.21 17.6 32.21 18.23C32.21 18.85 32.71 19.36 33.33 19.36C33.95 19.36 34.45 18.85 34.45 18.23C34.45 17.6 33.95 17.09 33.33 17.09ZM40.88 17.09C40.27 17.09 39.77 17.6 39.77 18.23C39.77 18.85 40.27 19.36 40.88 19.36C41.5 19.36 42 18.85 42 18.23C42 17.6 41.5 17.09 40.88 17.09ZM3.12 24.63C2.5 24.63 2 25.14 2 25.77C2 26.4 2.5 26.91 3.12 26.91C3.73 26.91 4.23 26.4 4.23 25.77C4.23 25.14 3.73 24.63 3.12 24.63ZM10.67 24.63C10.05 24.63 9.55 25.14 9.55 25.77C9.55 26.4 10.05 26.91 10.67 26.91C11.29 26.91 11.79 26.4 11.79 25.77C11.79 25.14 11.29 24.63 10.67 24.63ZM18.22 24.63C17.61 24.63 17.11 25.14 17.11 25.77C17.11 26.4 17.61 26.91 18.22 26.91C18.84 26.91 19.34 26.4 19.34 25.77C19.34 25.14 18.84 24.63 18.22 24.63ZM25.78 24.63C25.16 24.63 24.66 25.14 24.66 25.77C24.66 26.4 25.16 26.91 25.78 26.91C26.39 26.91 26.89 26.4 26.89 25.77C26.89 25.14 26.39 24.63 25.78 24.63ZM33.33 24.63C32.71 24.63 32.21 25.14 32.21 25.77C32.21 26.4 32.71 26.91 33.33 26.91C33.95 26.91 34.45 26.4 34.45 25.77C34.45 25.14 33.95 24.63 33.33 24.63ZM40.88 24.63C40.27 24.63 39.77 25.14 39.77 25.77C39.77 26.4 40.27 26.91 40.88 26.91C41.5 26.91 42 26.4 42 25.77C42 25.14 41.5 24.63 40.88 24.63ZM3.12 32.18C2.5 32.18 2 32.69 2 33.32C2 33.94 2.5 34.45 3.12 34.45C3.73 34.45 4.23 33.94 4.23 33.32C4.23 32.69 3.73 32.18 3.12 32.18ZM10.67 32.18C10.05 32.18 9.55 32.69 9.55 33.32C9.55 33.94 10.05 34.45 10.67 34.45C11.29 34.45 11.79 33.94 11.79 33.32C11.79 32.69 11.29 32.18 10.67 32.18ZM18.22 32.18C17.61 32.18 17.11 32.69 17.11 33.32C17.11 33.94 17.61 34.45 18.22 34.45C18.84 34.45 19.34 33.94 19.34 33.32C19.34 32.69 18.84 32.18 18.22 32.18ZM25.78 32.18C25.16 32.18 24.66 32.69 24.66 33.32C24.66 33.94 25.16 34.45 25.78 34.45C26.39 34.45 26.89 33.94 26.89 33.32C26.89 32.69 26.39 32.18 25.78 32.18ZM33.33 32.18C32.71 32.18 32.21 32.69 32.21 33.32C32.21 33.94 32.71 34.45 33.33 34.45C33.95 34.45 34.45 33.94 34.45 33.32C34.45 32.69 33.95 32.18 33.33 32.18ZM40.88 32.18C40.27 32.18 39.77 32.69 39.77 33.32C39.77 33.94 40.27 34.45 40.88 34.45C41.5 34.45 42 33.94 42 33.32C42 32.69 41.5 32.18 40.88 32.18ZM3.12 39.72C2.5 39.72 2 40.23 2 40.86C2 41.49 2.5 42 3.12 42C3.73 42 4.23 41.49 4.23 40.86C4.23 40.23 3.73 39.72 3.12 39.72ZM10.67 39.72C10.05 39.72 9.55 40.23 9.55 40.86C9.55 41.49 10.05 42 10.67 42C11.29 42 11.79 41.49 11.79 40.86C11.79 40.23 11.29 39.72 10.67 39.72ZM18.22 39.72C17.61 39.72 17.11 40.23 17.11 40.86C17.11 41.49 17.61 42 18.22 42C18.84 42 19.34 41.49 19.34 40.86C19.34 40.23 18.84 39.72 18.22 39.72ZM25.78 39.72C25.16 39.72 24.66 40.23 24.66 40.86C24.66 41.49 25.16 42 25.78 42C26.39 42 26.89 41.49 26.89 40.86C26.89 40.23 26.39 39.72 25.78 39.72ZM33.33 39.72C32.71 39.72 32.21 40.23 32.21 40.86C32.21 41.49 32.71 42 33.33 42C33.95 42 34.45 41.49 34.45 40.86C34.45 40.23 33.95 39.72 33.33 39.72ZM40.88 39.72C40.27 39.72 39.77 40.23 39.77 40.86C39.77 41.49 40.27 42 40.88 42C41.5 42 42 41.49 42 40.86C42 40.23 41.5 39.72 40.88 39.72Z" />
</svg>