<svg version="1.2" baseProfile="tiny-ps" xmlns="http://www.w3.org/2000/svg" viewBox="0 0 121 121" width="121" height="121">
	<title>Shape 119 copy 2</title>
	<style>
		tspan { white-space:pre }
		.shp0 { fill: #ff884e } 
	</style>
	<path id="Shape 119 copy 2" class="shp0" d="M5.3 2C3.48 2 2 3.5 2 5.35C2 7.21 3.48 8.71 5.3 8.71C7.12 8.71 8.59 7.21 8.59 5.35C8.59 3.5 7.12 2 5.3 2ZM27.58 2C25.76 2 24.28 3.5 24.28 5.35C24.28 7.21 25.76 8.71 27.58 8.71C29.4 8.71 30.87 7.21 30.87 5.35C30.87 3.5 29.4 2 27.58 2ZM49.86 2C48.04 2 46.56 3.5 46.56 5.35C46.56 7.21 48.04 8.71 49.86 8.71C51.68 8.71 53.16 7.21 53.16 5.35C53.16 3.5 51.68 2 49.86 2ZM72.14 2C70.32 2 68.84 3.5 68.84 5.35C68.84 7.21 70.32 8.71 72.14 8.71C73.96 8.71 75.44 7.21 75.44 5.35C75.44 3.5 73.96 2 72.14 2ZM94.42 2C92.6 2 91.13 3.5 91.13 5.35C91.13 7.21 92.6 8.71 94.42 8.71C96.24 8.71 97.72 7.21 97.72 5.35C97.72 3.5 96.24 2 94.42 2ZM116.7 8.71C118.52 8.71 120 7.21 120 5.35C120 3.5 118.52 2 116.7 2C114.88 2 113.41 3.5 113.41 5.35C113.41 7.21 114.88 8.71 116.7 8.71ZM5.3 24.25C3.48 24.25 2 25.76 2 27.61C2 29.47 3.48 30.97 5.3 30.97C7.12 30.97 8.59 29.47 8.59 27.61C8.59 25.76 7.12 24.25 5.3 24.25ZM27.58 24.25C25.76 24.25 24.28 25.76 24.28 27.61C24.28 29.47 25.76 30.97 27.58 30.97C29.4 30.97 30.87 29.47 30.87 27.61C30.87 25.76 29.4 24.25 27.58 24.25ZM49.86 24.25C48.04 24.25 46.56 25.76 46.56 27.61C46.56 29.47 48.04 30.97 49.86 30.97C51.68 30.97 53.16 29.47 53.16 27.61C53.16 25.76 51.68 24.25 49.86 24.25ZM72.14 24.25C70.32 24.25 68.84 25.76 68.84 27.61C68.84 29.47 70.32 30.97 72.14 30.97C73.96 30.97 75.44 29.47 75.44 27.61C75.44 25.76 73.96 24.25 72.14 24.25ZM94.42 24.25C92.6 24.25 91.13 25.76 91.13 27.61C91.13 29.47 92.6 30.97 94.42 30.97C96.24 30.97 97.72 29.47 97.72 27.61C97.72 25.76 96.24 24.25 94.42 24.25ZM116.7 24.25C114.88 24.25 113.41 25.76 113.41 27.61C113.41 29.47 114.88 30.97 116.7 30.97C118.52 30.97 120 29.47 120 27.61C120 25.76 118.52 24.25 116.7 24.25ZM5.3 46.51C3.48 46.51 2 48.01 2 49.87C2 51.72 3.48 53.23 5.3 53.23C7.12 53.23 8.59 51.72 8.59 49.87C8.59 48.01 7.12 46.51 5.3 46.51ZM27.58 46.51C25.76 46.51 24.28 48.01 24.28 49.87C24.28 51.72 25.76 53.23 27.58 53.23C29.4 53.23 30.87 51.72 30.87 49.87C30.87 48.01 29.4 46.51 27.58 46.51ZM49.86 46.51C48.04 46.51 46.56 48.01 46.56 49.87C46.56 51.72 48.04 53.23 49.86 53.23C51.68 53.23 53.16 51.72 53.16 49.87C53.16 48.01 51.68 46.51 49.86 46.51ZM72.14 46.51C70.32 46.51 68.84 48.01 68.84 49.87C68.84 51.72 70.32 53.23 72.14 53.23C73.96 53.23 75.44 51.72 75.44 49.87C75.44 48.01 73.96 46.51 72.14 46.51ZM94.42 46.51C92.6 46.51 91.13 48.01 91.13 49.87C91.13 51.72 92.6 53.23 94.42 53.23C96.24 53.23 97.72 51.72 97.72 49.87C97.72 48.01 96.24 46.51 94.42 46.51ZM116.7 46.51C114.88 46.51 113.41 48.01 113.41 49.87C113.41 51.72 114.88 53.23 116.7 53.23C118.52 53.23 120 51.72 120 49.87C120 48.01 118.52 46.51 116.7 46.51ZM5.3 68.77C3.48 68.77 2 70.27 2 72.12C2 73.98 3.48 75.48 5.3 75.48C7.12 75.48 8.59 73.98 8.59 72.12C8.59 70.27 7.12 68.77 5.3 68.77ZM27.58 68.77C25.76 68.77 24.28 70.27 24.28 72.12C24.28 73.98 25.76 75.48 27.58 75.48C29.4 75.48 30.87 73.98 30.87 72.12C30.87 70.27 29.4 68.77 27.58 68.77ZM49.86 68.77C48.04 68.77 46.56 70.27 46.56 72.12C46.56 73.98 48.04 75.48 49.86 75.48C51.68 75.48 53.16 73.98 53.16 72.12C53.16 70.27 51.68 68.77 49.86 68.77ZM72.14 68.77C70.32 68.77 68.84 70.27 68.84 72.12C68.84 73.98 70.32 75.48 72.14 75.48C73.96 75.48 75.44 73.98 75.44 72.12C75.44 70.27 73.96 68.77 72.14 68.77ZM94.42 68.77C92.6 68.77 91.13 70.27 91.13 72.12C91.13 73.98 92.6 75.48 94.42 75.48C96.24 75.48 97.72 73.98 97.72 72.12C97.72 70.27 96.24 68.77 94.42 68.77ZM116.7 68.77C114.88 68.77 113.41 70.27 113.41 72.12C113.41 73.98 114.88 75.48 116.7 75.48C118.52 75.48 120 73.98 120 72.12C120 70.27 118.52 68.77 116.7 68.77ZM5.3 91.02C3.48 91.02 2 92.53 2 94.38C2 96.24 3.48 97.74 5.3 97.74C7.12 97.74 8.59 96.24 8.59 94.38C8.59 92.53 7.12 91.02 5.3 91.02ZM27.58 91.02C25.76 91.02 24.28 92.53 24.28 94.38C24.28 96.24 25.76 97.74 27.58 97.74C29.4 97.74 30.87 96.24 30.87 94.38C30.87 92.53 29.4 91.02 27.58 91.02ZM49.86 91.02C48.04 91.02 46.56 92.53 46.56 94.38C46.56 96.24 48.04 97.74 49.86 97.74C51.68 97.74 53.16 96.24 53.16 94.38C53.16 92.53 51.68 91.02 49.86 91.02ZM72.14 91.02C70.32 91.02 68.84 92.53 68.84 94.38C68.84 96.24 70.32 97.74 72.14 97.74C73.96 97.74 75.44 96.24 75.44 94.38C75.44 92.53 73.96 91.02 72.14 91.02ZM94.42 91.02C92.6 91.02 91.13 92.53 91.13 94.38C91.13 96.24 92.6 97.74 94.42 97.74C96.24 97.74 97.72 96.24 97.72 94.38C97.72 92.53 96.24 91.02 94.42 91.02ZM116.7 91.02C114.88 91.02 113.41 92.53 113.41 94.38C113.41 96.24 114.88 97.74 116.7 97.74C118.52 97.74 120 96.24 120 94.38C120 92.53 118.52 91.02 116.7 91.02ZM5.3 113.28C3.48 113.28 2 114.78 2 116.64C2 118.49 3.48 120 5.3 120C7.12 120 8.59 118.49 8.59 116.64C8.59 114.78 7.12 113.28 5.3 113.28ZM27.58 113.28C25.76 113.28 24.28 114.78 24.28 116.64C24.28 118.49 25.76 120 27.58 120C29.4 120 30.87 118.49 30.87 116.64C30.87 114.78 29.4 113.28 27.58 113.28ZM49.86 113.28C48.04 113.28 46.56 114.78 46.56 116.64C46.56 118.49 48.04 120 49.86 120C51.68 120 53.16 118.49 53.16 116.64C53.16 114.78 51.68 113.28 49.86 113.28ZM72.14 113.28C70.32 113.28 68.84 114.78 68.84 116.64C68.84 118.49 70.32 120 72.14 120C73.96 120 75.44 118.49 75.44 116.64C75.44 114.78 73.96 113.28 72.14 113.28ZM94.42 113.28C92.6 113.28 91.13 114.78 91.13 116.64C91.13 118.49 92.6 120 94.42 120C96.24 120 97.72 118.49 97.72 116.64C97.72 114.78 96.24 113.28 94.42 113.28ZM116.7 113.28C114.88 113.28 113.41 114.78 113.41 116.64C113.41 118.49 114.88 120 116.7 120C118.52 120 120 118.49 120 116.64C120 114.78 118.52 113.28 116.7 113.28Z" />
</svg>