<svg xmlns="http://www.w3.org/2000/svg" xmlns:xlink="http://www.w3.org/1999/xlink" viewBox="0 0 95.42 30.56"><defs><style>.cls-1{fill:#fff;}.cls-2{fill:url(#linear-gradient);}</style><linearGradient id="linear-gradient" x1="4.23" y1="19.85" x2="24.3" y2="19.85" gradientTransform="translate(-9.86 15.9) rotate(-45)" gradientUnits="userSpaceOnUse"><stop offset="0" stop-color="#ffb92e"/><stop offset="1" stop-color="#ff4115"/></linearGradient></defs><g id="Layer_2" data-name="Layer 2"><g id="Layer_1-2" data-name="Layer 1"><path class="cls-1" d="M15.51,29.89h7.11l-8-11.39A10.81,10.81,0,0,0,15.81,18a8.67,8.67,0,0,0,3.74-3.3,9.12,9.12,0,0,0,1.3-4.89,9.13,9.13,0,0,0-1.3-4.92,8.76,8.76,0,0,0-3.74-3.28A13.51,13.51,0,0,0,9.88.46H0V29.89H6V19.21H8.63ZM6,5.59H9.5a6.61,6.61,0,0,1,2.75.53A4,4,0,0,1,14,7.63,4.32,4.32,0,0,1,14.67,10,4.33,4.33,0,0,1,14,12.38a4,4,0,0,1-1.79,1.51,6.61,6.61,0,0,1-2.75.53H6Z"/><path class="cls-1" d="M41.32,12.84a6.82,6.82,0,0,0-3-2.08,12.59,12.59,0,0,0-4.41-.71,15.29,15.29,0,0,0-4.88.73,24.19,24.19,0,0,0-3.69,1.54l2,3.7a9.19,9.19,0,0,1,1.31-.72,10.09,10.09,0,0,1,2.1-.71,10.69,10.69,0,0,1,2.56-.3,7.14,7.14,0,0,1,1.6.17,3.26,3.26,0,0,1,1.24.55,2.29,2.29,0,0,1,.78.94,3.35,3.35,0,0,1,.25,1.37v2.06a10.46,10.46,0,0,0-2.38-.93,12.61,12.61,0,0,0-3.25-.38,8.53,8.53,0,0,0-5.59,1.64,5.49,5.49,0,0,0-2,4.46,5.72,5.72,0,0,0,.95,3.34,6,6,0,0,0,2.5,2.08,7.86,7.86,0,0,0,3.36.72,9.22,9.22,0,0,0,3.38-.63,6.26,6.26,0,0,0,2.65-1.89,4.5,4.5,0,0,0,.36-.53v2.63h5.25V16.18A5.18,5.18,0,0,0,41.32,12.84ZM36.53,24.53A4.24,4.24,0,0,1,34.89,26a4.84,4.84,0,0,1-2.27.53A4.07,4.07,0,0,1,31,26.25a2.64,2.64,0,0,1-1.15-.92,2.44,2.44,0,0,1-.43-1.45,2.51,2.51,0,0,1,.38-1.41A2.47,2.47,0,0,1,31,21.59,5.47,5.47,0,0,1,33,21.27a10.28,10.28,0,0,1,3,.42,8.46,8.46,0,0,1,1.16.45h0A4.33,4.33,0,0,1,36.53,24.53Z"/><path class="cls-1" d="M50.69,25a9.31,9.31,0,0,0,2,1,5.23,5.23,0,0,0,1.79.34,2.53,2.53,0,0,0,1.68-.49,1.62,1.62,0,0,0,.59-1.32,1.83,1.83,0,0,0-.48-1.28,4.5,4.5,0,0,0-1.41-.95,24.05,24.05,0,0,0-2.36-.88,20.41,20.41,0,0,1-2.6-1.2,6.2,6.2,0,0,1-2.09-1.85,5,5,0,0,1-.81-3,4.61,4.61,0,0,1,.92-2.92,5.69,5.69,0,0,1,2.5-1.81,9.58,9.58,0,0,1,3.51-.61,10.85,10.85,0,0,1,3.07.42,12.54,12.54,0,0,1,2.65,1.11,10.37,10.37,0,0,1,2.14,1.62L59.4,16.65a8.43,8.43,0,0,0-2.51-1.85,6.32,6.32,0,0,0-2.83-.72,2.53,2.53,0,0,0-1.45.36,1.21,1.21,0,0,0-.53,1.07,1.47,1.47,0,0,0,.53,1.11,4.69,4.69,0,0,0,1.51.87c.66.25,1.41.56,2.25.92a21.27,21.27,0,0,1,2.88,1.33,6.53,6.53,0,0,1,2.12,1.82,4.77,4.77,0,0,1,.8,2.86,5.62,5.62,0,0,1-1.89,4.52,7.76,7.76,0,0,1-5.21,1.62A12.13,12.13,0,0,1,51.3,30a12,12,0,0,1-3.06-1.45,16.24,16.24,0,0,1-2.46-1.95l2.64-3.41A17.84,17.84,0,0,0,50.69,25Z"/><path class="cls-1" d="M66.63.86A3.36,3.36,0,0,1,68.94,0a3.31,3.31,0,0,1,2.29.86,2.86,2.86,0,0,1,.94,2.21,2.84,2.84,0,0,1-.94,2.18,3.24,3.24,0,0,1-2.29.89,3.29,3.29,0,0,1-2.31-.89,2.8,2.8,0,0,1-1-2.18A2.82,2.82,0,0,1,66.63.86Zm4.91,9.69V29.89H66.25V10.55Z"/><path class="cls-1" d="M89,15.17a2.85,2.85,0,0,0-2.44-1,4.12,4.12,0,0,0-2,.48A3.24,3.24,0,0,0,83.23,16a4.43,4.43,0,0,0-.46,2.1V29.89H77.3V10.55h5.47v2.94A6.34,6.34,0,0,1,85.1,11a6.81,6.81,0,0,1,3.51-.86,6.41,6.41,0,0,1,5.13,1.95,8.11,8.11,0,0,1,1.68,5.45V29.89H89.79V18.12A4.85,4.85,0,0,0,89,15.17Z"/><rect class="cls-2" x="12.51" y="6.38" width="3.52" height="26.94" rx="1.76" transform="translate(18.21 -4.27) rotate(45)"/></g></g></svg>